<svg xmlns="http://www.w3.org/2000/svg" xmlns:xlink="http://www.w3.org/1999/xlink" viewBox="0 0 281.49 93.06"><defs><style>.cls-1{fill:url(#linear-gradient);}.cls-2{fill:url(#linear-gradient-2);}.cls-3{fill:url(#linear-gradient-3);}.cls-4{fill:url(#linear-gradient-4);}.cls-5{fill:url(#linear-gradient-5);}.cls-6{fill:url(#linear-gradient-6);}.cls-7{fill:#d52d2a;}</style><linearGradient id="linear-gradient" x1="247.13" y1="25.15" x2="275.06" y2="71.7" gradientUnits="userSpaceOnUse"><stop offset="0" stop-color="#d52d2a"/><stop offset="1" stop-color="#b11116"/></linearGradient><linearGradient id="linear-gradient-2" x1="206.21" y1="49.7" x2="234.14" y2="96.25" xlink:href="#linear-gradient"/><linearGradient id="linear-gradient-3" x1="227.84" y1="36.72" x2="255.77" y2="83.27" xlink:href="#linear-gradient"/><linearGradient id="linear-gradient-4" x1="242.14" y1="28.14" x2="270.08" y2="74.69" xlink:href="#linear-gradient"/><linearGradient id="linear-gradient-5" x1="217.05" y1="43.19" x2="244.98" y2="89.75" xlink:href="#linear-gradient"/><linearGradient id="linear-gradient-6" x1="238.63" y1="30.24" x2="266.56" y2="76.8" xlink:href="#linear-gradient"/></defs><title>Asset 2</title><g id="Layer_2" data-name="Layer 2"><g id="Layer_1-2" data-name="Layer 1"><rect class="cls-1" x="188.49" width="93" height="9.84"/><rect class="cls-2" x="208.16" y="29.23" width="9.84" height="63.83"/><rect class="cls-3" x="237.58" y="29.23" width="9.84" height="63.83"/><path class="cls-4" d="M198.32,15.6a9,9,0,0,0,9,8.94h55.25a9.35,9.35,0,0,0,9.35-9.35V14.7H198.32Z"/><rect class="cls-5" x="222.91" y="29.23" width="9.84" height="63.83"/><rect class="cls-6" x="252.25" y="29.23" width="9.84" height="63.83"/><path class="cls-7" d="M43.45,43H16.23l-5.37,12.6H.44L24.94,1.18h10L59.48,55.63H48.9ZM40.11,35.1,29.84,11.29,19.65,35.1Z"/><path class="cls-7" d="M106.15,55.63,95,39.68a18.29,18.29,0,0,1-2.1.08H80.63V55.63H70.52V1.18h22.4a30.07,30.07,0,0,1,12.33,2.34,17.91,17.91,0,0,1,8,6.68,18.73,18.73,0,0,1,2.8,10.35,18.5,18.5,0,0,1-3,10.58,17.84,17.84,0,0,1-8.6,6.61L117,55.63Zm-3.66-43.09q-3.42-2.8-10-2.8H80.63v21.7H92.46q6.6,0,10-2.84a9.88,9.88,0,0,0,3.42-8C105.91,17.08,104.77,14.4,102.49,12.54Z"/><path class="cls-7" d="M141.81,52.79a26.57,26.57,0,0,1-10.42-10,27.71,27.71,0,0,1-3.78-14.39A27.51,27.51,0,0,1,131.42,14,26.86,26.86,0,0,1,141.89,4,30.64,30.64,0,0,1,156.78.4,31,31,0,0,1,169,2.74a24.92,24.92,0,0,1,9.34,6.76l-6.54,6.15a19.06,19.06,0,0,0-14.54-6.38,20.45,20.45,0,0,0-10,2.45,17.63,17.63,0,0,0-6.92,6.81,19.52,19.52,0,0,0-2.49,9.88,19.51,19.51,0,0,0,2.49,9.87,17.63,17.63,0,0,0,6.92,6.81,20.45,20.45,0,0,0,10,2.45,18.93,18.93,0,0,0,14.54-6.46l6.54,6.23A24.83,24.83,0,0,1,169,54.07a31.25,31.25,0,0,1-12.25,2.34A30.67,30.67,0,0,1,141.81,52.79Z"/><path class="cls-7" d="M14,74.33a7.05,7.05,0,0,1-.44,1.46,5,5,0,0,1-1.06,1.52,5.86,5.86,0,0,1-2.1,1.26,9.84,9.84,0,0,1-3.36.5,8.84,8.84,0,0,1-2.77-.42A6.24,6.24,0,0,1,2,77.38,5.66,5.66,0,0,1,.53,75.27,7.62,7.62,0,0,1,0,72.34,6.91,6.91,0,0,1,.45,69.8a5.36,5.36,0,0,1,1.33-2A6.34,6.34,0,0,1,4,66.47,10,10,0,0,1,7.23,66a8.8,8.8,0,0,1,3.16.5,5.39,5.39,0,0,1,2,1.21,4.84,4.84,0,0,1,1,1.33,7,7,0,0,1,.45,1.18l0,.06H11.37a2.11,2.11,0,0,0-.3-.57,3.5,3.5,0,0,0-.72-.73,4,4,0,0,0-1.22-.63,5.48,5.48,0,0,0-1.76-.26,6.32,6.32,0,0,0-2.2.34,4,4,0,0,0-1.52.94,3.58,3.58,0,0,0-.88,1.43,5.5,5.5,0,0,0-.29,1.81,4,4,0,0,0,1.33,3.22A5,5,0,0,0,7.23,77,5.88,5.88,0,0,0,9,76.72,4.61,4.61,0,0,0,10.34,76a3.51,3.51,0,0,0,.82-.87,2.88,2.88,0,0,0,.4-.84Z"/><path class="cls-7" d="M16.16,70.11A5.7,5.7,0,0,1,17.45,68a5.9,5.9,0,0,1,2.32-1.47A9.93,9.93,0,0,1,23.18,66a10,10,0,0,1,3.41.53A6,6,0,0,1,28.91,68a5.81,5.81,0,0,1,1.28,2.11,7.74,7.74,0,0,1,.4,2.52,7,7,0,0,1-.36,2.18A6,6,0,0,1,29,76.89a5.93,5.93,0,0,1-2.3,1.57,9.18,9.18,0,0,1-3.55.61,9.2,9.2,0,0,1-3.56-.61,5.83,5.83,0,0,1-3.5-3.65,7,7,0,0,1-.36-2.18A7.74,7.74,0,0,1,16.16,70.11ZM25,76.76a4.85,4.85,0,0,0,1.6-.73,3.58,3.58,0,0,0,1.14-1.39,4.79,4.79,0,0,0,.43-2.15,4,4,0,0,0-1.37-3.28,5.56,5.56,0,0,0-3.61-1.12,5.59,5.59,0,0,0-3.62,1.12,4,4,0,0,0-1.37,3.28,4.75,4.75,0,0,0,.43,2.14A3.6,3.6,0,0,0,19.77,76a4.82,4.82,0,0,0,1.59.74,7.6,7.6,0,0,0,3.63,0Z"/><path class="cls-7" d="M33.16,66.31h2.57l8.33,9v-9h2.33V78.76H44.16l-8.67-9.32v9.32H33.16Z"/><path class="cls-7" d="M59.46,70.1a2.69,2.69,0,0,0-.46-.83,2.87,2.87,0,0,0-.79-.64A3.93,3.93,0,0,0,57,68.19,9.07,9.07,0,0,0,55.09,68a7.9,7.9,0,0,0-1.23.09,5.3,5.3,0,0,0-1.06.27,2,2,0,0,0-.74.49,1,1,0,0,0-.28.71.87.87,0,0,0,.1.42,1,1,0,0,0,.38.38,3.36,3.36,0,0,0,.86.33,12.11,12.11,0,0,0,1.45.28l3,.44a7.22,7.22,0,0,1,3.31,1.2A2.87,2.87,0,0,1,62,75a3.52,3.52,0,0,1-.47,1.84,3.71,3.71,0,0,1-1.31,1.27,6.52,6.52,0,0,1-2,.71,12,12,0,0,1-2.4.22,11.35,11.35,0,0,1-3.19-.39,6.68,6.68,0,0,1-2.09-1,4.76,4.76,0,0,1-1.14-1.16,4.24,4.24,0,0,1-.52-1.05l2.34-.74a4.51,4.51,0,0,0,.5.78,3.61,3.61,0,0,0,.81.71,4.7,4.7,0,0,0,1.36.54,8.79,8.79,0,0,0,2,.2,6.38,6.38,0,0,0,2.59-.47q1.05-.47,1.05-1.26c0-.81-.91-1.33-2.71-1.56l-3-.41a6.72,6.72,0,0,1-3.32-1.21,2.84,2.84,0,0,1-1.17-2.33,3,3,0,0,1,.7-2.09,3.87,3.87,0,0,1,1.71-1.13,7.81,7.81,0,0,1,1.84-.43A14.71,14.71,0,0,1,55.16,66a11.19,11.19,0,0,1,3.13.37,6,6,0,0,1,2,.91,4,4,0,0,1,1,1,5.68,5.68,0,0,1,.49,1Z"/><path class="cls-7" d="M68.9,68.4H63.33V66.31H76.89V68.4H71.33V78.76H68.9Z"/><path class="cls-7" d="M79.14,66.31h7.48a11.93,11.93,0,0,1,2.11.16,4.31,4.31,0,0,1,1.57.58,2.78,2.78,0,0,1,1,1.14A4.1,4.1,0,0,1,91.69,70a3.44,3.44,0,0,1-1,2.61,3.73,3.73,0,0,1-2.46,1L92,78.76H89l-3.61-4.9H81.57v4.9H79.14Zm7.12,5.53a5.36,5.36,0,0,0,2.31-.36,1.43,1.43,0,0,0,.69-1.4,1.42,1.42,0,0,0-.69-1.39,5.36,5.36,0,0,0-2.31-.36H81.57v3.51Z"/><path class="cls-7" d="M108,73.42a5.2,5.2,0,0,1-1.78,4.33,5.71,5.71,0,0,1-2.07,1,10.9,10.9,0,0,1-2.76.32,11,11,0,0,1-2.76-.32,5.71,5.71,0,0,1-2.07-1,5.2,5.2,0,0,1-1.78-4.33V66.31h2.43v6.94a5.71,5.71,0,0,0,.18,1.5,2.77,2.77,0,0,0,.64,1.16,3.07,3.07,0,0,0,1.28.79,7.83,7.83,0,0,0,4.15,0,3,3,0,0,0,1.28-.79,2.79,2.79,0,0,0,.65-1.16,5.71,5.71,0,0,0,.18-1.5V66.31H108Z"/><path class="cls-7" d="M124.48,74.33a6.49,6.49,0,0,1-.44,1.46A4.84,4.84,0,0,1,123,77.31a5.69,5.69,0,0,1-2.1,1.26,9.81,9.81,0,0,1-3.35.5,8.9,8.9,0,0,1-2.78-.42,6.19,6.19,0,0,1-2.24-1.27A5.66,5.66,0,0,1,111,75.27a7.44,7.44,0,0,1-.53-2.93,6.91,6.91,0,0,1,.44-2.54,5.38,5.38,0,0,1,1.34-2,6.17,6.17,0,0,1,2.26-1.32,9.86,9.86,0,0,1,3.18-.47,8.76,8.76,0,0,1,3.16.5,5.31,5.31,0,0,1,2,1.21,4.7,4.7,0,0,1,1,1.33,9.33,9.33,0,0,1,.45,1.18v.06h-2.43a2.57,2.57,0,0,0-.31-.57,3.68,3.68,0,0,0-.71-.73,4,4,0,0,0-1.22-.63,5.55,5.55,0,0,0-1.77-.26,6.3,6.3,0,0,0-2.19.34,3.93,3.93,0,0,0-1.53.94,3.7,3.7,0,0,0-.88,1.43,5.5,5.5,0,0,0-.28,1.81,4,4,0,0,0,1.33,3.22A5,5,0,0,0,117.71,77a5.79,5.79,0,0,0,1.8-.26,4.47,4.47,0,0,0,1.31-.68,3.56,3.56,0,0,0,.83-.87,2.88,2.88,0,0,0,.4-.84Z"/><path class="cls-7" d="M131.49,68.4h-5.57V66.31h13.57V68.4h-5.57V78.76h-2.43Z"/><path class="cls-7" d="M141.88,66.31h2.44V78.76h-2.44Z"/><path class="cls-7" d="M147.44,70.11A5.7,5.7,0,0,1,148.73,68a6,6,0,0,1,2.32-1.47,11.23,11.23,0,0,1,6.82,0A6,6,0,0,1,160.19,68a5.68,5.68,0,0,1,1.28,2.11,7.74,7.74,0,0,1,.4,2.52,7,7,0,0,1-.36,2.18,6.16,6.16,0,0,1-1.19,2.08A6,6,0,0,1,158,78.46a10.66,10.66,0,0,1-7.11,0,5.83,5.83,0,0,1-3.5-3.65,7,7,0,0,1-.36-2.18A7.74,7.74,0,0,1,147.44,70.11Zm8.83,6.65a4.76,4.76,0,0,0,1.6-.73A3.5,3.5,0,0,0,159,74.64a4.79,4.79,0,0,0,.43-2.15,4,4,0,0,0-1.37-3.28,6.39,6.39,0,0,0-7.23,0,4,4,0,0,0-1.37,3.28,4.75,4.75,0,0,0,.43,2.14A3.6,3.6,0,0,0,151.05,76a4.82,4.82,0,0,0,1.59.74,7.26,7.26,0,0,0,1.82.22A7.18,7.18,0,0,0,156.27,76.76Z"/><path class="cls-7" d="M164.44,66.31H167l8.33,9v-9h2.33V78.76h-2.23l-8.67-9.32v9.32h-2.33Z"/><path d="M16.49,88.37a1.07,1.07,0,0,0-.24-.43,1.4,1.4,0,0,0-.41-.34,2,2,0,0,0-.66-.23,4.61,4.61,0,0,0-1-.09,4.37,4.37,0,0,0-.64,0,2.21,2.21,0,0,0-.55.14.94.94,0,0,0-.39.25.54.54,0,0,0-.15.38.59.59,0,0,0,0,.22.53.53,0,0,0,.2.19,2,2,0,0,0,.45.18,6.45,6.45,0,0,0,.77.14l1.54.24a3.76,3.76,0,0,1,1.73.62A1.53,1.53,0,0,1,17.8,91a1.76,1.76,0,0,1-.25,1,1.9,1.9,0,0,1-.68.67,3.42,3.42,0,0,1-1,.37,6.29,6.29,0,0,1-1.26.11,5.83,5.83,0,0,1-1.67-.2,3.58,3.58,0,0,1-1.09-.51,2.63,2.63,0,0,1-.6-.61,2.13,2.13,0,0,1-.27-.55l1.23-.39a2.19,2.19,0,0,0,.26.41,1.73,1.73,0,0,0,.42.37,2.34,2.34,0,0,0,.71.28,4.51,4.51,0,0,0,1.05.11A3.19,3.19,0,0,0,16,91.72c.36-.16.55-.38.55-.65,0-.43-.48-.7-1.42-.82L13.55,90a3.57,3.57,0,0,1-1.74-.63,1.48,1.48,0,0,1-.61-1.22,1.58,1.58,0,0,1,.37-1.1,2.08,2.08,0,0,1,.89-.59,4.35,4.35,0,0,1,1-.22c.3,0,.57,0,.82,0a5.87,5.87,0,0,1,1.64.2,2.91,2.91,0,0,1,1,.47,2.21,2.21,0,0,1,.53.54,3.26,3.26,0,0,1,.25.54Z"/><path d="M33.23,86.38h5.85v1.1H34.51V89h3.93v1.1H34.51v1.72h4.68V92.9h-6Z"/><path d="M54.56,86.38h3.92a6,6,0,0,1,1.1.09,2.41,2.41,0,0,1,.82.3,1.43,1.43,0,0,1,.54.6,2.08,2.08,0,0,1,.19,1,1.79,1.79,0,0,1-.53,1.37,2,2,0,0,1-1.29.55l2,2.65H59.74l-1.89-2.56h-2V92.9H54.56Zm3.73,2.9a2.78,2.78,0,0,0,1.21-.19.74.74,0,0,0,.36-.73.75.75,0,0,0-.36-.73,2.78,2.78,0,0,0-1.21-.19H55.83v1.84Z"/><path d="M76.26,86.38h1.36l2.45,5.21,2.5-5.21h1.36L80.74,92.9H79.41Z"/><path d="M99.28,86.38h1.27V92.9H99.28Z"/><path d="M123.38,90.58a3.52,3.52,0,0,1-.23.77,2.57,2.57,0,0,1-.56.79,3,3,0,0,1-1.1.66,4.93,4.93,0,0,1-1.75.26,4.6,4.6,0,0,1-1.46-.22,3.15,3.15,0,0,1-1.17-.66,2.79,2.79,0,0,1-.78-1.11,3.83,3.83,0,0,1-.28-1.53,3.79,3.79,0,0,1,.23-1.33,3,3,0,0,1,.7-1,3.09,3.09,0,0,1,1.19-.69,5,5,0,0,1,1.67-.25,4.68,4.68,0,0,1,1.65.26,3,3,0,0,1,1,.63,3.14,3.14,0,0,1,.52.7,4,4,0,0,1,.23.62v0H122a1.7,1.7,0,0,0-.17-.3,1.63,1.63,0,0,0-.37-.38,2.13,2.13,0,0,0-.64-.33,2.84,2.84,0,0,0-.92-.13,3.28,3.28,0,0,0-1.15.17,2.21,2.21,0,0,0-.8.49,2.09,2.09,0,0,0-.46.75,2.91,2.91,0,0,0-.15,1,2.09,2.09,0,0,0,.7,1.69,2.64,2.64,0,0,0,1.79.6,3,3,0,0,0,.94-.14,2.29,2.29,0,0,0,.68-.35,1.83,1.83,0,0,0,.43-.46,1.17,1.17,0,0,0,.21-.44Z"/><path d="M138.85,86.38h5.84v1.1h-4.57V89h3.94v1.1h-3.94v1.72h4.68V92.9h-6Z"/><path d="M165.25,88.37a1.37,1.37,0,0,0-.24-.43,1.4,1.4,0,0,0-.41-.34,2,2,0,0,0-.67-.23,4.51,4.51,0,0,0-1-.09,4.26,4.26,0,0,0-.64,0,2.3,2.3,0,0,0-.56.14,1.09,1.09,0,0,0-.39.25.57.57,0,0,0-.14.38.59.59,0,0,0,.05.22.46.46,0,0,0,.2.19,1.66,1.66,0,0,0,.45.18,6.62,6.62,0,0,0,.76.14l1.54.24a3.72,3.72,0,0,1,1.73.62,1.51,1.51,0,0,1,.6,1.26,1.81,1.81,0,0,1-.94,1.63,3.36,3.36,0,0,1-1,.37,6.29,6.29,0,0,1-1.26.11,5.79,5.79,0,0,1-1.67-.2,3.64,3.64,0,0,1-1.1-.51,2.77,2.77,0,0,1-.59-.61,2.6,2.6,0,0,1-.28-.55l1.23-.39a2.19,2.19,0,0,0,.26.41,2,2,0,0,0,.43.37,2.24,2.24,0,0,0,.71.28,4.48,4.48,0,0,0,1,.11,3.24,3.24,0,0,0,1.36-.25c.36-.16.54-.38.54-.65,0-.43-.47-.7-1.41-.82L162.31,90a3.49,3.49,0,0,1-1.74-.63,1.48,1.48,0,0,1-.61-1.22,1.62,1.62,0,0,1,.36-1.1,2.18,2.18,0,0,1,.9-.59,4.35,4.35,0,0,1,1-.22,8.17,8.17,0,0,1,.82,0,5.87,5.87,0,0,1,1.64.2,3,3,0,0,1,1,.47,2.14,2.14,0,0,1,.52.54,3.33,3.33,0,0,1,.26.54Z"/></g></g></svg>