<?xml version="1.0" encoding="utf-8"?>
<!-- Generator: Adobe Illustrator 23.0.0, SVG Export Plug-In . SVG Version: 6.00 Build 0)  -->
<svg version="1.1" id="Layer_1" xmlns="http://www.w3.org/2000/svg" xmlns:xlink="http://www.w3.org/1999/xlink" x="0px" y="0px"
	 viewBox="0 0 490.9 83.2" style="enable-background:new 0 0 490.9 83.2;" xml:space="preserve">
<style type="text/css">
	.st0{fill:#0C9047;}
	.st1{fill:#42B762;}
	.st2{fill:#FFFFFF;}
</style>
<title>Glyph_logo_01_White_Green</title>
<rect x="59.8" y="21.1" class="st0" width="9.8" height="0"/>
<polygon class="st1" points="79.4,21.1 69.6,21.1 69.6,21.1 59.8,21.1 72.9,32.4 82.7,40.8 96.1,52.4 96.1,38 96.1,36.4 96.1,21.1 
	"/>
<path class="st2" d="M36.8,21.1c-3.1,0-5.6,2.5-5.7,5.6c0,0,0,0,0,0c0,0,0,0.1,0,0.1s0,0,0,0c0,1.4,0.6,2.8,1.6,3.8
	c1,1.1,2.5,1.7,4,1.7h32.8L56.4,21L36.8,21.1z"/>
<path class="st2" d="M67,41.1H24.3c-2.3,0.1-4.6-0.4-6.7-1.5c-1.6-0.9-2.9-2.1-4-3.6c-1-1.4-1.7-3-2-4.7c-0.7-3.1-0.7-6.2,0-9.3
	c0.3-1.7,1-3.3,2-4.7c1.1-1.5,2.4-2.7,4-3.6c2.1-1.1,4.3-1.6,6.7-1.5h66.1c3.1,0,5.6-2.5,5.7-5.6c0,0,0,0,0-0.1c0-0.1,0-0.2,0-0.2
	s0,0,0,0c0-1.4-0.6-2.7-1.6-3.7c-1-1.1-2.5-1.7-4-1.7H21.7c-3.2-0.1-6.3,0.8-9.1,2.4C10,5,7.6,7.1,5.8,9.5c-1.9,2.5-3.3,5.3-4.3,8.2
	c-1,2.9-1.5,5.9-1.5,9c0,3.1,0.5,6.1,1.4,9c0.9,3,2.3,5.8,4.1,8.3c1.7,2.4,3.9,4.5,6.4,6.1c2.6,1.6,5.6,2.4,8.6,2.4H67l0,0h25.7
	L79.6,41.2L67,41.1z"/>
<path class="st2" d="M195.3,41.8h-69.7c-0.5,0.1-1.1-0.3-1.1-0.9c0-0.1,0-0.2,0-0.3V5.8c-0.1-3.2-2.7-5.7-5.8-5.8
	c-1.6,0-3.1,0.6-4.2,1.8c-1.1,1.1-1.7,2.5-1.7,4.1v38.3c-0.1,5,3.8,9.2,8.8,9.3c0.2,0,0.4,0,0.5,0h73.1c3.2,0,5.8-2.6,5.8-5.8
	C201,44.5,198.4,41.9,195.3,41.8L195.3,41.8z"/>
<path class="st2" d="M276.6,0c-1.6,0-3.1,0.6-4.2,1.8c-1.1,1.1-1.7,2.5-1.7,4.1v13.9c0,0.3-0.1,0.6-0.4,0.8
	c-0.2,0.2-0.5,0.3-0.7,0.3h-55.7c-0.5,0.1-1.1-0.3-1.1-0.9c0-0.1,0-0.2,0-0.3V5.8c-0.1-3.2-2.7-5.7-5.8-5.8c-1.6,0-3.1,0.6-4.1,1.8
	c-1.1,1.1-1.7,2.5-1.7,4.1v17.4c-0.1,5,3.8,9.2,8.8,9.3c0.2,0,0.4,0,0.5,0h25.5v15.1c-0.1,3.2,2.4,5.8,5.6,5.8c0.1,0,0.2,0,0.3,0
	c3.2,0,5.8-2.6,5.8-5.8V32.6h25.5c2.5,0,4.8-0.9,6.6-2.7c1.8-1.7,2.8-4.2,2.8-6.7V5.8C282.3,2.7,279.7,0.1,276.6,0L276.6,0z"/>
<path class="st2" d="M377,0h-73.1c-1.6,0-3.1,0.6-4.2,1.8c-1.1,1.1-1.7,2.5-1.7,4.1c-0.1,3.1,2.4,5.8,5.6,5.8c0.1,0,0.2,0,0.3,0
	h69.6c0.3,0,0.5,0.1,0.7,0.3l0.2,0.2c0.2,0.2,0.3,0.4,0.3,0.7v7c0,0.3-0.1,0.6-0.4,0.8c-0.2,0.2-0.5,0.3-0.7,0.3h-69.6
	c-1.6,0-3.1,0.6-4.2,1.8c-1.1,1.1-1.7,2.6-1.7,4.2v20.8c-0.1,3.1,2.4,5.7,5.6,5.8c0.1,0,0.2,0,0.2,0c3.2,0,5.8-2.6,5.8-5.8V33.7
	c0-0.3,0.1-0.6,0.4-0.8c0.2-0.2,0.5-0.3,0.8-0.3H377c2.5,0,4.8-0.9,6.6-2.7c1.8-1.7,2.8-4.2,2.8-6.7V9.3C386.3,4.2,382.1,0.1,377,0
	L377,0z"/>
<path class="st2" d="M490.3,25.6V5.8c0-3.2-2.6-5.8-5.8-5.8c-1.6,0-3.1,0.6-4.2,1.8c-1.1,1.1-1.7,2.5-1.7,4.1v10.3
	c0,1.1,0,2.2,0.1,3.4c0,0.1,0,0.2,0,0.4l0,0v1c-0.5,0-1.1,0-1.7,0h-62.2c-0.5,0.1-1.1-0.3-1.1-0.9c0-0.1,0-0.2,0-0.3V5.8
	c-0.1-3.2-2.7-5.7-5.8-5.8c-1.6,0-3.1,0.6-4.2,1.8c-1.1,1.1-1.7,2.5-1.7,4.1v41.8c-0.1,3.2,2.4,5.8,5.6,5.8c0.1,0,0.2,0,0.3,0
	c3.2,0,5.8-2.6,5.8-5.8V33.7c0-0.3,0.1-0.6,0.4-0.8c0.2-0.2,0.5-0.3,0.8-0.3h62.7c0.6,0.1,1.1,0.5,1.1,1.1v13.9
	c-0.1,3.2,2.4,5.8,5.6,5.8c0.1,0,0.2,0,0.3,0c3.2,0,5.8-2.6,5.8-5.8V30.2C490.3,31.8,490.3,25.7,490.3,25.6z"/>
<path class="st2" d="M11.7,75.9c2.1,0,3.1-0.8,3.1-2.6s-0.9-2.6-3.1-2.6H9.3v5.2H11.7z M11.7,69.1c3.4,0,4.9,1.3,4.9,4.2
	s-1.6,4.3-4.9,4.3H9.3v4.9c0,0.2-0.1,0.4-0.3,0.4c0,0-0.1,0-0.1,0H7.8c-0.2,0-0.4-0.1-0.4-0.3c0,0,0,0,0-0.1V69.5
	c0-0.2,0.1-0.4,0.3-0.4c0,0,0,0,0.1,0H11.7z"/>
<path class="st2" d="M33.9,75.8c2.1,0,3-0.8,3-2.5s-0.9-2.6-3-2.6h-2.3v5.1H33.9z M31.6,77.4v5.1c0,0.2-0.1,0.4-0.3,0.4
	c0,0-0.1,0-0.1,0h-1.1c-0.2,0-0.4-0.1-0.4-0.3c0,0,0-0.1,0-0.1V69.5c0-0.2,0.1-0.4,0.3-0.4c0,0,0.1,0,0.1,0h3.8
	c3.4,0,4.9,1.3,4.9,4.2c0,2.2-1,3.6-3,4l3.1,5.2c0.2,0.3,0.1,0.5-0.3,0.5h-1.3c-0.2,0-0.4-0.1-0.5-0.3l-3-5.2L31.6,77.4z"/>
<path class="st2" d="M53.8,77.9c0,2.4,1,3.6,3.1,3.6s3.1-1.2,3.1-3.6V74c0-2.4-1-3.6-3.1-3.6s-3.1,1.2-3.1,3.6V77.9z M51.9,73.8
	c0-3.2,1.8-5,5-5s5,1.8,5,5v4.3c0,3.3-1.8,5-5,5s-5-1.8-5-5V73.8z"/>
<path class="st2" d="M83.2,74c0-2.3-1-3.3-3.2-3.3h-2.6v10.6H80c2.1,0,3.2-1.1,3.2-3.4V74z M80.1,69c3.3,0,5,1.6,5,4.8v4.3
	c0,3.2-1.7,4.8-5,4.8h-4.2c-0.2,0-0.4-0.1-0.4-0.3c0,0,0,0,0-0.1V69.5c0-0.2,0.1-0.4,0.3-0.4c0,0,0,0,0.1,0L80.1,69z"/>
<path class="st2" d="M108,78.3c0,3.1-1.7,4.8-4.7,4.8s-4.7-1.7-4.7-4.8v-8.9c0-0.2,0.1-0.4,0.3-0.4c0,0,0,0,0.1,0h1.1
	c0.2,0,0.4,0.1,0.4,0.3c0,0,0,0.1,0,0.1v8.7c0,2.3,0.9,3.4,2.9,3.4s2.9-1.1,2.9-3.4v-8.7c0-0.2,0.1-0.4,0.3-0.4c0,0,0,0,0.1,0h1
	c0.2,0,0.4,0.1,0.4,0.3c0,0,0,0.1,0,0.1L108,78.3z"/>
<path class="st2" d="M129.2,79.9c0.1-0.2,0.3-0.3,0.6-0.2l0.8,0.4c0.2,0.1,0.3,0.3,0.2,0.5c0,0,0,0,0,0.1c-0.8,1.6-2.6,2.6-4.4,2.4
	c-3.1,0-4.9-1.8-4.9-5v-4.4c0-3.2,1.7-5,4.9-5c1.8-0.1,3.5,0.8,4.4,2.4c0.1,0.2,0.1,0.4-0.1,0.5c0,0,0,0-0.1,0l-0.8,0.4
	c-0.1,0.1-0.4,0.1-0.5,0c0,0,0-0.1-0.1-0.1c-0.5-1.1-1.7-1.7-2.9-1.6c-2,0-3,1.2-3,3.6v3.9c0,2.4,1,3.6,3,3.6
	C127.5,81.6,128.6,81,129.2,79.9z"/>
<path class="st2" d="M148.2,82.5c0,0.2-0.1,0.4-0.3,0.4c0,0-0.1,0-0.1,0h-1.1c-0.2,0-0.4-0.1-0.4-0.3c0,0,0-0.1,0-0.1V70.7h-3.4
	c-0.2,0-0.4-0.1-0.4-0.3c0,0,0,0,0-0.1v-0.9c0-0.2,0.1-0.4,0.3-0.4c0,0,0,0,0.1,0h8.7c0.2,0,0.4,0.1,0.4,0.3c0,0,0,0.1,0,0.1v0.9
	c0,0.2-0.1,0.4-0.3,0.4c0,0-0.1,0-0.1,0h-3.4L148.2,82.5z"/>
<path class="st2" d="M166.8,82.5c0,0.2-0.1,0.4-0.3,0.4c0,0-0.1,0-0.1,0h-1.1c-0.2,0-0.4-0.1-0.4-0.3c0,0,0,0,0-0.1V69.5
	c0-0.2,0.1-0.4,0.3-0.4c0,0,0,0,0.1,0h1.1c0.2,0,0.4,0.1,0.4,0.3c0,0,0,0.1,0,0.1V82.5z"/>
<path class="st2" d="M182.4,77.9c0,2.4,1,3.6,3.1,3.6s3.1-1.2,3.1-3.6V74c0-2.4-1-3.6-3.1-3.6s-3.1,1.2-3.1,3.6V77.9z M180.5,73.8
	c0-3.2,1.8-5,5-5s5,1.8,5,5v4.3c0,3.3-1.8,5-5,5s-5-1.8-5-5V73.8z"/>
<path class="st2" d="M213.8,82.5c0,0.2-0.1,0.4-0.3,0.4c0,0-0.1,0-0.1,0h-1.2c-0.2,0-0.4-0.1-0.5-0.3L206,72.2l0,0v10.3
	c0,0.2-0.1,0.4-0.3,0.4c0,0-0.1,0-0.1,0h-1c-0.2,0-0.4-0.1-0.4-0.3c0,0,0-0.1,0-0.1V69.5c0-0.2,0.1-0.4,0.3-0.4c0,0,0.1,0,0.1,0h1.3
	c0.2,0,0.4,0.1,0.5,0.3l5.6,10.1l0,0v-10c0-0.2,0.1-0.4,0.3-0.4c0,0,0.1,0,0.1,0h1c0.2,0,0.4,0.1,0.4,0.3c0,0,0,0.1,0,0.1
	L213.8,82.5z"/>
<path class="st2" d="M246.5,82.5c0,0.2-0.1,0.4-0.3,0.4c0,0,0,0-0.1,0h-1.1c-0.2,0-0.4-0.1-0.4-0.3c0,0,0-0.1,0-0.1V70.7h-3.4
	c-0.2,0-0.4-0.1-0.4-0.3c0,0,0-0.1,0-0.1v-0.9c0-0.2,0.1-0.4,0.3-0.4c0,0,0.1,0,0.1,0h8.7c0.2,0,0.4,0.1,0.4,0.3c0,0,0,0,0,0.1v0.9
	c0,0.2-0.1,0.4-0.3,0.4c0,0,0,0-0.1,0h-3.4V82.5z"/>
<path class="st2" d="M269.8,75.1c0.2,0,0.4,0.1,0.4,0.3c0,0,0,0.1,0,0.1v0.9c0,0.2-0.1,0.4-0.3,0.4c0,0-0.1,0-0.1,0h-5.5v4.5h6.4
	c0.2,0,0.4,0.1,0.4,0.3c0,0,0,0.1,0,0.1v0.9c0,0.2-0.1,0.4-0.3,0.4c0,0-0.1,0-0.1,0h-7.9c-0.2,0-0.4-0.1-0.4-0.3c0,0,0-0.1,0-0.1
	V69.5c0-0.2,0.1-0.4,0.3-0.4c0,0,0.1,0,0.1,0h7.9c0.2,0,0.4,0.1,0.4,0.3c0,0,0,0.1,0,0.1v0.9c0,0.2-0.1,0.4-0.3,0.4c0,0-0.1,0-0.1,0
	h-6.4v4.4H269.8z"/>
<path class="st2" d="M291.8,79.9c0.1-0.2,0.3-0.3,0.5-0.2l0.8,0.4c0.2,0.1,0.3,0.3,0.2,0.5c0,0,0,0,0,0.1c-0.8,1.6-2.6,2.6-4.4,2.4
	c-3.2,0-4.9-1.8-4.9-5v-4.4c0-3.2,1.7-5,4.9-5c1.8-0.1,3.5,0.8,4.4,2.4c0.1,0.2,0.1,0.4-0.1,0.5c0,0,0,0-0.1,0l-0.8,0.4
	c-0.1,0.1-0.4,0.1-0.5,0c0,0,0-0.1-0.1-0.1c-0.5-1.1-1.7-1.7-2.9-1.6c-2,0-3,1.2-3,3.6v3.9c0,2.4,1,3.6,3,3.6
	C290.1,81.6,291.2,81,291.8,79.9z"/>
<path class="st2" d="M316.1,82.5c0,0.2-0.1,0.4-0.3,0.4c0,0,0,0-0.1,0h-1.1c-0.2,0-0.4-0.1-0.4-0.3c0,0,0-0.1,0-0.1v-5.8h-6v5.8
	c0,0.2-0.1,0.4-0.3,0.4c0,0-0.1,0-0.1,0h-1.1c-0.2,0-0.4-0.1-0.4-0.3c0,0,0,0,0-0.1V69.5c0-0.2,0.1-0.4,0.3-0.4c0,0,0.1,0,0.1,0h1.1
	c0.2,0,0.4,0.1,0.4,0.3c0,0,0,0.1,0,0.1v5.6h6v-5.6c0-0.2,0.1-0.4,0.3-0.4c0,0,0.1,0,0.1,0h1.1c0.2,0,0.4,0.1,0.4,0.3c0,0,0,0,0,0.1
	L316.1,82.5z"/>
<path class="st2" d="M340,82.5c0,0.2-0.1,0.4-0.3,0.4c0,0,0,0-0.1,0h-1.2c-0.2,0-0.4-0.1-0.5-0.3l-5.8-10.4l0,0v10.3
	c0,0.2-0.1,0.4-0.3,0.4c0,0,0,0-0.1,0h-1c-0.2,0-0.4-0.1-0.4-0.3c0,0,0-0.1,0-0.1V69.5c0-0.2,0.1-0.4,0.3-0.4c0,0,0.1,0,0.1,0h1.4
	c0.2,0,0.4,0.1,0.5,0.3l5.6,10.1l0,0v-10c0-0.2,0.1-0.4,0.3-0.4c0,0,0.1,0,0.1,0h1c0.2,0,0.4,0.1,0.4,0.3c0,0,0,0,0,0.1L340,82.5z"
	/>
<path class="st2" d="M355.6,77.9c0,2.4,1,3.6,3.1,3.6c2.1,0,3.1-1.2,3.1-3.6V74c0-2.4-1-3.6-3.1-3.6c-2.1,0-3.1,1.2-3.1,3.6V77.9z
	 M353.7,73.8c0-3.2,1.8-5,5-5s5,1.8,5,5v4.3c0,3.3-1.8,5-5,5s-5-1.8-5-5V73.8z"/>
<path class="st2" d="M385.7,82.5c0,0.2-0.1,0.4-0.3,0.4c0,0,0,0-0.1,0h-7.6c-0.2,0-0.4-0.1-0.4-0.3c0,0,0-0.1,0-0.1V69.5
	c0-0.2,0.1-0.4,0.3-0.4c0,0,0.1,0,0.1,0h1.1c0.2,0,0.4,0.1,0.4,0.3c0,0,0,0.1,0,0.1v11.8h6.1c0.2,0,0.4,0.1,0.4,0.3c0,0,0,0,0,0.1
	V82.5z"/>
<path class="st2" d="M399.7,77.9c0,2.4,1,3.6,3.1,3.6s3.1-1.2,3.1-3.6V74c0-2.4-1-3.6-3.1-3.6s-3.1,1.2-3.1,3.6V77.9z M397.8,73.8
	c0-3.2,1.8-5,5-5s5,1.8,5,5v4.3c0,3.3-1.8,5-5,5s-5-1.8-5-5V73.8z"/>
<path class="st2" d="M430.8,78.1c0,3.3-1.7,5.1-4.9,5.1s-4.9-1.8-4.9-5v-4.4c0-3.2,1.8-5,5-5c1.9-0.2,3.6,0.8,4.5,2.4
	c0.1,0.2,0,0.4-0.2,0.5c0,0,0,0,0,0l-0.8,0.4c-0.1,0.1-0.4,0.1-0.5,0c0,0,0-0.1-0.1-0.1c-0.6-1.1-1.8-1.7-3.1-1.6
	c-2.1,0-3.1,1.2-3.1,3.6v3.9c0,2.4,1,3.6,3,3.6s3.1-1.2,3.1-3.6v-0.8h-2.6c-0.2,0-0.4-0.1-0.4-0.3c0,0,0,0,0-0.1v-0.9
	c0-0.2,0.1-0.4,0.3-0.4c0,0,0,0,0.1,0h4c0.2,0,0.4,0.1,0.4,0.3c0,0,0,0.1,0,0.1L430.8,78.1z"/>
<path class="st2" d="M444.6,69.1h1.1c0.2,0,0.4,0.2,0.4,0.4v13.1c0,0.2-0.2,0.4-0.4,0.4h-1.1c-0.2,0-0.4-0.2-0.4-0.4V69.5
	C444.2,69.2,444.4,69.1,444.6,69.1z"/>
<path class="st2" d="M467.6,75.1c0.2,0,0.4,0.1,0.4,0.3c0,0,0,0.1,0,0.1v0.9c0,0.2-0.1,0.4-0.3,0.4c0,0-0.1,0-0.1,0h-5.5v4.5h6.4
	c0.2,0,0.4,0.1,0.4,0.3c0,0,0,0,0,0.1v0.9c0,0.2-0.1,0.4-0.3,0.4c0,0,0,0-0.1,0h-7.9c-0.2,0-0.4-0.1-0.4-0.3c0,0,0-0.1,0-0.1V69.5
	c0-0.2,0.1-0.4,0.3-0.4c0,0,0.1,0,0.1,0h7.9c0.2,0,0.4,0.1,0.4,0.3c0,0,0,0,0,0.1v0.9c0,0.2-0.1,0.4-0.3,0.4c0,0,0,0-0.1,0h-6.4v4.4
	H467.6z"/>
<path class="st2" d="M490.3,70.5c0.1,0.1,0.1,0.4,0,0.5c0,0,0,0-0.1,0.1l-0.7,0.6c-0.1,0.2-0.3,0.2-0.5,0.1c0,0-0.1-0.1-0.1-0.1
	c-0.7-0.8-1.8-1.3-2.8-1.2c-1.6,0-2.7,0.9-2.7,2.3c0,1.3,0.7,1.9,3.1,2.3c3.1,0.6,4.2,1.7,4.2,4s-1.8,4-4.5,4
	c-1.8,0.1-3.6-0.6-4.9-2c-0.1-0.1-0.2-0.3-0.1-0.5c0,0,0,0,0.1-0.1l0.7-0.6c0.1-0.1,0.3-0.2,0.5-0.1c0,0,0.1,0,0.1,0.1
	c0.9,1,2.2,1.6,3.5,1.5c1.7,0,2.7-0.9,2.7-2.3c0-1.2-0.8-1.9-3.1-2.3c-3.1-0.5-4.3-1.7-4.3-4.1s1.8-4,4.5-4
	C487.6,68.7,489.2,69.3,490.3,70.5z"/>
</svg>
