<?xml version="1.0" encoding="utf-8"?>
<!-- Generator: Adobe Illustrator 23.0.2, SVG Export Plug-In . SVG Version: 6.00 Build 0)  -->
<svg version="1.1" id="Layer_1" xmlns="http://www.w3.org/2000/svg" xmlns:xlink="http://www.w3.org/1999/xlink" x="0px" y="0px"
	 viewBox="0 0 236.2 54.9" style="enable-background:new 0 0 236.2 54.9;" xml:space="preserve">
<style type="text/css">
	.st0{fill:#70A1FF;}
	.st1{fill:#4F4F4F;}
	.st2{fill:#366EBF;}
	.st3{fill:#275389;}
</style>
<g>
	<g>
		<g>
			<g>
				<path class="st0" d="M9.6,7.6c5.7,0,8.5,4.4,8.5,8.8s-2.9,8.8-8.5,8.8H3.8v8.8H0V7.6H9.6z M9.6,21.4c3.2,0,4.8-2.5,4.8-5
					c0-2.5-1.6-5-4.8-5H3.8v10H9.6z"/>
				<path class="st0" d="M23.2,11.2c2.4-2.4,5.8-4,9.5-4c3.7,0,7.1,1.5,9.5,4c2.4,2.4,3.9,5.8,3.9,9.5c0,3.7-1.5,7.1-3.9,9.5
					c-2.4,2.5-5.8,4-9.5,4c-3.7,0-7.1-1.5-9.5-4c-2.4-2.4-3.9-5.8-3.9-9.5C19.2,17,20.8,13.7,23.2,11.2z M39.5,13.9
					c-1.8-1.8-4.2-2.9-6.8-2.9s-5,1.1-6.7,2.9c-1.7,1.7-2.8,4.1-2.8,6.8c0,2.7,1.1,5.1,2.8,6.8c1.7,1.8,4.1,2.9,6.7,2.9
					s5-1.1,6.8-2.9c1.7-1.7,2.8-4.1,2.8-6.8C42.3,18.1,41.2,15.7,39.5,13.9z"/>
				<path class="st0" d="M52.2,30.1h12.4v3.8H48.4V7.6h3.8V30.1z"/>
				<path class="st0" d="M63.1,7.6l7.2,11.6l7.2-11.6H82l-9.8,15.6v10.7h-3.8V23.2L58.6,7.6H63.1z"/>
				<path class="st0" d="M101.8,17c-1.1-4.3-5.1-5.8-8.5-5.8c-5.2,0-9.2,4-9.2,9.6c0,5.6,4,9.7,9.2,9.7c3.2,0,6.7-1.5,8.3-5.3h-9.8
					v-3.8h14.2c-0.2,2.2-0.4,3.7-0.7,4.6v0c-1.8,5-7.2,8.3-12,8.3c-7.4,0-13-5.6-13-13.3c0-7.8,5.7-13.4,13-13.4
					c5,0,11.1,2.6,12.5,9.6H101.8z"/>
				<path class="st0" d="M111.4,11.2c2.4-2.4,5.8-4,9.5-4c3.7,0,7.1,1.5,9.5,4c2.4,2.4,3.9,5.8,3.9,9.5c0,3.7-1.5,7.1-3.9,9.5
					c-2.4,2.5-5.8,4-9.5,4c-3.7,0-7.1-1.5-9.5-4c-2.4-2.4-3.9-5.8-3.9-9.5C107.5,17,109.1,13.7,111.4,11.2z M127.7,13.9
					c-1.8-1.8-4.2-2.9-6.8-2.9c-2.6,0-5,1.1-6.7,2.9c-1.7,1.7-2.8,4.1-2.8,6.8c0,2.7,1.1,5.1,2.8,6.8c1.7,1.8,4.1,2.9,6.7,2.9
					c2.6,0,5-1.1,6.8-2.9c1.7-1.7,2.8-4.1,2.8-6.8C130.5,18.1,129.4,15.7,127.7,13.9z"/>
				<path class="st0" d="M136.7,33.9V7.5l2.9,0l12.8,18.6V7.6h3.8v26.4h-3l-12.7-18.4v18.4H136.7z"/>
			</g>
			<g>
				<path class="st1" d="M94,41.8c-0.2-0.7-0.9-1-1.6-1c-0.5,0-1.1,0.2-1.4,0.6c-0.2,0.2-0.2,0.5-0.2,0.7c0.1,0.8,0.9,0.9,1.7,1
					c1.1,0.1,2.4,0.4,2.7,1.6c0,0.2,0.1,0.4,0.1,0.5c0,1.5-1.5,2.3-2.9,2.3c-1.2,0-2.6-0.7-2.8-2.1l0-0.2l1.1,0l0,0.2v0
					c0.1,0.7,0.9,1.1,1.7,1.1c0.8,0,1.7-0.5,1.7-1.3c0-0.1,0-0.2,0-0.3c-0.1-0.6-0.9-0.7-1.7-0.8c-1.2-0.1-2.6-0.4-2.7-2v0
					c0-0.5,0.1-1,0.4-1.5c0.5-0.7,1.4-1,2.3-1c1.2,0,2.4,0.6,2.6,2L94,41.8z"/>
				<path class="st1" d="M99,40.9c0.7-0.7,1.7-1.2,2.8-1.2c1.1,0,2.1,0.5,2.8,1.2c0.7,0.7,1.1,1.7,1.1,2.8c0,1.1-0.5,2.1-1.1,2.8
					c-0.7,0.7-1.7,1.2-2.8,1.2c-1.1,0-2.1-0.4-2.8-1.2c-0.7-0.7-1.1-1.7-1.1-2.8C97.9,42.6,98.3,41.6,99,40.9z M103.8,41.7
					c-0.5-0.5-1.2-0.8-2-0.8c-0.8,0-1.5,0.3-2,0.8c-0.5,0.5-0.8,1.2-0.8,2c0,0.8,0.3,1.5,0.8,2c0.5,0.5,1.2,0.8,2,0.8
					c0.8,0,1.5-0.3,2-0.8c0.5-0.5,0.8-1.2,0.8-2C104.6,42.9,104.2,42.2,103.8,41.7z"/>
				<path class="st1" d="M109.6,47.5h-1.1v-7.7h4.6V41h-3.5v2.2h3.1v1.1h-3.1V47.5z"/>
				<path class="st1" d="M118,47.6V41h-2.3v-1.1h5.8V41h-2.3v6.6H118z"/>
				<path class="st1" d="M128.3,43.9c-0.4,1.3-0.9,2.6-1.3,3.7h-0.8l-2.6-7.7h1.2l1.8,5.6l1.3-3.6h0.9l1.3,3.6
					c0.6-1.8,1.3-3.8,1.8-5.5h1.2l-2.6,7.7h-0.8L128.3,43.9z"/>
				<path class="st1" d="M139.1,45.3h-2.8c-0.3,0.7-0.7,1.6-0.9,2.3h-1.2l3.1-7.8h0.8l3.1,7.8H140L139.1,45.3z M136.8,44.2h1.9
					l-0.9-2.7L136.8,44.2z"/>
				<path class="st1" d="M145.1,43.6h1.3c0.9,0,1.4-0.7,1.4-1.3c0-0.7-0.5-1.3-1.4-1.3h-1.7v6.6h-1.1v-7.7h2.8
					c1.7,0,2.5,1.2,2.5,2.5c0,1.1-0.7,2.1-2,2.4l2.4,2.9h-1.4l-2.8-3.4V43.6z"/>
				<path class="st1" d="M152.7,46.4h3.6v1.1h-4.7v-7.7h4.7V41h-3.6v2.2h3.5v1.1h-3.5V46.4z"/>
			</g>
		</g>
	</g>
	<g>
		<polygon class="st2" points="203.2,54.9 170.2,40.7 170.2,14.3 203.2,28.5 		"/>
		<polygon class="st3" points="203.2,54.9 236.2,40.7 236.2,14.3 203.2,28.5 		"/>
		<g>
			<polygon class="st0" points="236.2,14.3 236.2,14.3 236.2,14.3 236.2,14.3 203.2,0 170.2,14.3 170.2,14.3 203.2,28.5 236.2,14.3 
				236.2,14.3 236.2,14.3 236.2,14.3 			"/>
			<polygon class="st2" points="215.8,14.3 215.8,14.3 215.8,14.3 203.2,8.8 190.7,14.3 190.7,14.3 190.7,14.3 190.7,14.3 
				190.7,14.3 203.2,19.7 215.8,14.3 215.8,14.3 			"/>
		</g>
		<polygon class="st0" points="184,20.2 170.2,14.3 170.2,40.7 184,46.6 		"/>
	</g>
</g>
</svg>
