<?xml version="1.0" encoding="UTF-8" standalone="no"?>
<svg
   xmlns:dc="http://purl.org/dc/elements/1.1/"
   xmlns:cc="http://creativecommons.org/ns#"
   xmlns:rdf="http://www.w3.org/1999/02/22-rdf-syntax-ns#"
   xmlns:svg="http://www.w3.org/2000/svg"
   xmlns="http://www.w3.org/2000/svg"
   viewBox="0 0 1866.6667 1306.6667"
   height="1306.6667"
   width="1866.6667"
   xml:space="preserve"
   id="svg2"
   version="1.1"><metadata
     id="metadata8"><rdf:RDF><cc:Work
         rdf:about=""><dc:format>image/svg+xml</dc:format><dc:type
           rdf:resource="http://purl.org/dc/dcmitype/StillImage" /></cc:Work></rdf:RDF></metadata><defs
     id="defs6"><clipPath
       id="clipPath20"
       clipPathUnits="userSpaceOnUse"><path
         id="path18"
         d="M 0,0 H 1400 V 980 H 0 Z" /></clipPath><clipPath
       id="clipPath28"
       clipPathUnits="userSpaceOnUse"><path
         id="path26"
         d="M -4.88281e-4,980 H 1400 V 424.867 H -4.88281e-4 Z" /></clipPath><clipPath
       id="clipPath32"
       clipPathUnits="userSpaceOnUse"><path
         id="path30"
         d="M 0,424.867 H 1400 V 980 H 0 Z" /></clipPath><clipPath
       id="clipPath36"
       clipPathUnits="userSpaceOnUse"><path
         id="path34"
         d="M -32768,32767 H 32767 V -32768 H -32768 Z" /></clipPath><linearGradient
       id="linearGradient42"
       spreadMethod="pad"
       gradientTransform="matrix(3.43e-5,555.13269,-785.60059,2.43e-5,699.99951,424.86719)"
       gradientUnits="userSpaceOnUse"
       y2="0"
       x2="1"
       y1="0"
       x1="0"><stop
         id="stop38"
         offset="0"
         style="stop-opacity:0;stop-color:#ffffff" /><stop
         id="stop40"
         offset="1"
         style="stop-opacity:1;stop-color:#ffffff" /></linearGradient><mask
       id="mask44"
       height="1"
       width="1"
       y="0"
       x="0"
       maskUnits="userSpaceOnUse"><g
         id="g54"><g
           id="g52"
           clip-path="url(#clipPath36)"><g
             id="g50"><g
               id="g48"><path
                 id="path46"
                 style="fill:url(#linearGradient42);stroke:none"
                 d="M -32768,32767 H 32767 V -32768 H -32768 Z" /></g></g></g></g></mask><linearGradient
       id="linearGradient60"
       spreadMethod="pad"
       gradientTransform="matrix(3.43e-5,555.13269,-785.60059,2.43e-5,699.99951,424.86719)"
       gradientUnits="userSpaceOnUse"
       y2="0"
       x2="1"
       y1="0"
       x1="0"><stop
         id="stop56"
         offset="0"
         style="stop-opacity:1;stop-color:#ffffff" /><stop
         id="stop58"
         offset="1"
         style="stop-opacity:1;stop-color:#d4a600" /></linearGradient><clipPath
       id="clipPath86"
       clipPathUnits="userSpaceOnUse"><path
         id="path84"
         d="M -42.5459,733 H 1442.55 V 402.081 H -42.5459 Z" /></clipPath><clipPath
       id="clipPath150"
       clipPathUnits="userSpaceOnUse"><path
         id="path148"
         d="m 1117.22,312.743 h 88.79 V 197.006 h -88.79 z" /></clipPath><clipPath
       id="clipPath186"
       clipPathUnits="userSpaceOnUse"><path
         id="path184"
         d="m 1128.7,295.324 h 10.39 v -89.222 h -10.39 z" /></clipPath><clipPath
       id="clipPath338"
       clipPathUnits="userSpaceOnUse"><path
         id="path336"
         d="m 914.376,424.543 h 78.085 v -138 h -78.085 z" /></clipPath><clipPath
       id="clipPath370"
       clipPathUnits="userSpaceOnUse"><path
         id="path368"
         d="M 561.596,264.339 H 637.16 V 192.688 H 561.596 Z" /></clipPath><clipPath
       id="clipPath418"
       clipPathUnits="userSpaceOnUse"><path
         id="path416"
         d="m 833.393,354.09 h 14.173 v -20.861 h -14.173 z" /></clipPath></defs><g
     transform="matrix(1.3333333,0,0,-1.3333333,0,1306.6667)"
     id="g10"><path
       id="path12"
       style="fill:#fdda73;fill-opacity:1;fill-rule:nonzero;stroke:none"
       d="M 0,0 H 1400 V 980 H 0 Z" /><g
       id="g14"><g
         clip-path="url(#clipPath20)"
         id="g16"><g
           id="g22"><g
             id="g24" /><g
             id="g78"><g
               style="opacity:0.39999402"
               id="g76"
               clip-path="url(#clipPath28)"><g
                 id="g74"><g
                   id="g72"
                   clip-path="url(#clipPath32)"><g
                     id="g70"><g
                       id="g62" /><g
                       id="g68"
                       mask="url(#mask44)"><g
                         id="g66"><path
                           id="path64"
                           style="fill:url(#linearGradient60);stroke:none"
                           d="M 0,424.867 H 1400 V 980 H 0 Z" /></g></g></g></g></g></g></g></g><g
           id="g80"><g
             id="g82" /><g
             id="g94"><g
               style="opacity:0.39999402"
               id="g92"
               clip-path="url(#clipPath86)"><g
                 id="g90"
                 transform="translate(-42.5459,617)"><path
                   id="path88"
                   style="fill:#eac365;fill-opacity:1;fill-rule:nonzero;stroke:none"
                   d="M 0,0 76,26.55 102,13.275 203.171,40 298,-18 472,26.55 548,54 l 30,62 30,-13 58,-39 71,-15 115,41 64,-41 66,-22.45 64,-30.55 82,30.55 c 0,0 69.684,45.45 73.842,43.45 C 1206,68 1292,49 1292,49 l 72,37 121.092,-70 V -214.919 H 0 Z" /></g></g></g></g><g
           transform="translate(494,478)"
           id="g96"><path
             id="path98"
             style="fill:#eac365;fill-opacity:1;fill-rule:nonzero;stroke:none"
             d="m 0,0 c 4,1 42,37 42,37 l -10,10 16,10 -14,6 21,13 -6,9 c 0,0 13,22 15,18 2,-4 15,-23 15,-23 l -9,-2 9,-7 -9,-4 21,-25 17,21 -13,7 36,13 -17.967,10 17.967,16 -6,7 14,16 17,-20 -10,-2 25,-24 -13,-3 43,-39 42,43 -12,7 22,18 -17,6 17,9 -12,5 27,20 h -12 l 12,46 29,-34 c 0,0 -13,-1 -13,-4 0,-3 38,-38 38,-38 l -19,3 32,-26 h -26 l 33,-25 43,13 c 0,0 -19,7 -16,7 3,0 24,18 24,18 l -16,2 26,30 -13,4 27,33 14,33 31,-43 -15,-1 17.527,-16.179 L 473,146 l 13,-23 -16,2 23,-18 52,-13 51,50 -16,10 26,15 -15,5 31,29 h -11 l 31,39 28,-42 -18,2 26,-27 -12.158,-2 29.158,-30 -23,1 46,-30 -17,-2 24,-20 20,23 -18,1 18,21 h -11 l 19,21 -14,5 28,26 -13,4 30,37 31,-36 -17,2 28,-37 -16,5 16,-28 -14,3 24,-30 -16,4 39,-27 47,-22 -5,-133.938 H -80.49 Z" /></g><g
           transform="translate(609.3545,455.5508)"
           id="g100"><path
             id="path102"
             style="fill:#eac365;fill-opacity:1;fill-rule:nonzero;stroke:none"
             d="m 0,0 c -2.69,0.674 -28.248,24.886 -28.248,24.886 l 6.726,6.725 -10.762,6.727 9.416,4.035 -14.124,8.743 4.036,6.054 c 0,0 -8.744,14.797 -10.089,12.105 -1.345,-2.689 -10.089,-15.468 -10.089,-15.468 l 6.054,-1.346 -6.054,-4.707 6.054,-2.691 -14.125,-16.814 -11.433,14.124 8.743,4.708 -24.212,8.743 12.084,6.727 -12.084,10.761 4.035,4.708 -9.416,10.761 -11.434,-13.452 6.726,-1.345 -16.815,-16.142 8.744,-2.018 -28.921,-26.23 -28.248,28.921 8.071,4.708 -14.797,12.106 11.434,4.036 -11.434,6.053 8.071,3.363 -18.159,13.451 h 8.07 l -8.07,30.939 -19.505,-22.868 c 0,0 8.743,-0.672 8.743,-2.69 0,-2.017 -25.557,-25.558 -25.557,-25.558 l 12.778,2.017 -21.522,-17.486 h 17.487 l -22.195,-16.815 -28.921,8.744 c 0,0 12.779,4.708 10.761,4.708 -2.017,0 -16.141,12.106 -16.141,12.106 l 10.76,1.345 -17.486,20.178 8.743,2.69 -18.159,22.194 -9.417,22.196 -20.849,-28.92 10.088,-0.673 -11.788,-10.882 -5.699,-5.26 -8.743,-15.469 10.761,1.344 -15.469,-12.105 -34.974,-8.744 -34.301,33.629 10.76,6.726 -17.487,10.088 10.089,3.363 -20.85,19.504 h 7.399 l -20.85,26.231 -18.832,-28.248 12.106,1.345 -17.487,-18.16 8.177,-1.345 -19.61,-20.176 15.468,0.672 -30.938,-20.178 11.433,-1.345 -16.141,-13.452 -13.451,15.471 12.106,0.672 -12.106,14.124 h 7.398 l -12.779,14.124 9.416,3.363 -18.832,17.486 8.743,2.692 -20.177,24.884 -20.85,-24.213 11.434,1.346 -18.832,-24.886 10.761,3.363 -10.761,-18.832 9.416,2.017 -16.142,-20.176 10.761,2.69 -26.23,-18.16 -31.611,-14.797 3.363,-90.084 H 54.136 Z" /></g><g
           transform="translate(1201.9629,496.5586)"
           id="g104"><path
             id="path106"
             style="fill:#9aa07f;fill-opacity:1;fill-rule:nonzero;stroke:none"
             d="M 0,0 34.193,30.783 48.441,-4.956 68.387,12.913 V 0 L 111.129,-35.903 128.226,0 156.721,-10.653 170.967,36.1 198.037,0.099 V -94.478 H 71.236 Z" /></g><g
           transform="translate(1261,468.3936)"
           id="g108"><path
             id="path110"
             style="fill:#b8bc9f;fill-opacity:1;fill-rule:nonzero;stroke:none"
             d="M 0,0 24,21.606 34,-3.479 48,9.063 V 0 L 78,-25.2 90,0 110,-7.478 120,25.338 139,0.069 V -66.313 H 50 Z" /></g><g
           transform="translate(0,404.2705)"
           id="g112"><path
             id="path114"
             style="fill:#9aa07f;fill-opacity:1;fill-rule:nonzero;stroke:none"
             d="m 0,0 h 1110.43 v 116.796 l -68.904,-3.745 -19.641,14.03 -7.013,-26.657 -20.346,14.031 -13.327,-11.926 -11.225,34.374 -28.761,-34.374 -30.167,7.718 9.122,-34.375 -16.135,2.807 4.908,-39.286 -19.64,18.239 -12.626,-30.865 -13.329,13.328 -3.508,-16.135 -21.746,12.628 -7.018,-12.628 -15.432,19.643 -9.118,-16.135 -10.523,9.82 -8.068,-9.119 -17.187,29.463 -7.717,-30.164 -16.134,16.836 -7.015,-9.12 -10.523,16.837 -25.955,-4.911 -8.034,43.493 -32.654,-22.151 -17.538,10.227 -7.716,-16.137 -10.523,17.539 -16.835,-6.314 -7.016,23.502 -31.567,-4.561 -6.421,39.284 -24.447,-18.941 -16.836,10.522 -2.105,-32.97 -32.269,1.402 4.21,-16.133 -31.568,15.434 -2.807,-16.137 -24.551,22.1 -15.434,-10.874 -16.836,30.865 -14.03,-19.991 -27.359,19.291 6.314,-48.108 -18.24,6.719 -5.612,-18.941 -16.836,12.222 -4.209,-26.953 -14.732,9.821 -3.507,-29.463 -25.254,30.866 -21.045,-17.538 -9.12,16.836 -8.951,-14.731 -13.668,28.06 -15.964,-16.835 -2.105,29.463 -49.104,-5.612 -4.21,30.163 -21.747,-42.792 -14.03,8.715 -7.015,-9.416 -7.716,19.643 L 84.673,51.318 72.046,89.2 55.209,79.38 51.351,117.963 32.06,113.754 40.478,175.485 22.939,157.948 0.746,193.726 Z" /></g><g
           transform="translate(0,402.0811)"
           id="g116"><path
             id="path118"
             style="fill:#b8bc9f;fill-opacity:1;fill-rule:nonzero;stroke:none"
             d="m 0,0 h 945.135 v 99.41 l -58.647,-3.187 -16.717,11.941 -5.97,-22.689 -17.317,11.942 -11.343,-10.151 -9.555,29.257 -24.479,-29.257 -25.675,6.568 7.763,-29.257 -13.734,2.389 4.18,-33.437 -16.719,15.524 -10.747,-26.272 -11.344,11.345 -2.985,-13.732 -18.51,10.747 -5.972,-10.747 -13.135,16.717 -7.762,-13.732 -8.956,8.358 -6.867,-7.76 -14.628,25.076 -6.568,-25.674 -13.734,14.33 -5.97,-7.763 -8.957,14.33 -22.091,-4.178 -6.838,37.018 -27.794,-18.854 -14.926,8.704 -6.568,-13.734 -8.957,14.928 -14.329,-5.374 -5.972,20.003 -26.868,-3.882 -5.465,33.437 -20.807,-16.121 -14.33,8.956 -1.792,-28.063 -27.465,1.195 3.583,-13.734 -26.869,13.136 -2.389,-13.733 -20.897,18.809 -13.136,-9.256 -14.33,26.272 -11.942,-17.016 -23.286,16.42 5.374,-40.947 -15.525,5.718 -4.776,-16.121 -14.33,10.403 -3.583,-22.942 -12.539,8.361 -2.985,-25.077 -21.495,26.271 -17.912,-14.928 -7.762,14.33 -7.619,-12.539 -11.634,23.884 -13.587,-14.33 -1.792,25.077 -41.795,-4.776 -3.582,25.675 -18.51,-36.422 -11.941,7.416 L 95.354,50.248 88.787,66.966 72.068,43.68 61.321,75.922 46.991,67.563 43.707,100.402 27.287,96.82 34.452,149.363 19.524,134.437 0.635,164.889 Z" /></g><g
           transform="translate(1239.2285,159.0879)"
           id="g120"><path
             id="path122"
             style="fill:#eac365;fill-opacity:1;fill-rule:nonzero;stroke:none"
             d="m 0,0 c 0,-4.176 -34.75,-7.56 -77.616,-7.56 -42.865,0 -77.615,3.384 -77.615,7.56 0,4.176 34.75,7.56 77.615,7.56 C -34.75,7.56 0,4.176 0,0" /></g><g
           transform="translate(1179.3701,214.7637)"
           id="g124"><path
             id="path126"
             style="fill:#ae8953;fill-opacity:1;fill-rule:nonzero;stroke:none"
             d="m 0,0 c 0,-9.808 -7.95,-17.758 -17.758,-17.758 -9.806,0 -17.758,7.95 -17.758,17.758 0,9.808 7.952,17.758 17.758,17.758 C -7.95,17.758 0,9.808 0,0" /></g><g
           transform="translate(1170.1221,245.6348)"
           id="g128"><path
             id="path130"
             style="fill:#efce70;fill-opacity:1;fill-rule:nonzero;stroke:none"
             d="m 0,0 c 0,-12.2 -3.81,-14.846 -8.51,-14.846 -4.699,0 -8.51,2.646 -8.51,14.846 0,12.199 3.811,29.332 8.51,29.332 C -3.81,29.332 0,12.199 0,0" /></g><g
           transform="translate(1170.1221,236.4795)"
           id="g132"><path
             id="path134"
             style="fill:#f0744d;fill-opacity:1;fill-rule:nonzero;stroke:none"
             d="m 0,0 c 0,-6.1 -3.81,-7.423 -8.51,-7.423 -4.699,0 -8.51,1.323 -8.51,7.423 0,6.101 3.811,14.666 8.51,14.666 C -3.81,14.666 0,6.101 0,0" /></g><g
           transform="translate(1161.6123,214.7637)"
           id="g136"><path
             id="path138"
             style="fill:#8ba1af;fill-opacity:1;fill-rule:nonzero;stroke:none"
             d="M 0,0 C -30.379,0 -55.006,-24.627 -55.006,-55.006 H 55.006 C 55.006,-24.627 30.379,0 0,0" /></g><g
           transform="translate(1220.9502,158.0254)"
           id="g140"><path
             id="path142"
             style="fill:#7d8a93;fill-opacity:1;fill-rule:nonzero;stroke:none"
             d="m 0,0 c 0,-3.589 -2.909,-6.497 -6.497,-6.497 h -105.681 c -3.588,0 -6.497,2.908 -6.497,6.497 0,3.588 2.909,6.496 6.497,6.496 H -6.497 C -2.909,6.496 0,3.588 0,0" /></g><g
           id="g144"><g
             id="g146" /><g
             id="g158"><g
               style="opacity:0.39999402"
               id="g156"
               clip-path="url(#clipPath150)"><g
                 id="g154"
                 transform="translate(1206.0068,209.999)"><path
                   id="path152"
                   style="fill:#eff0e6;fill-opacity:1;fill-rule:nonzero;stroke:none"
                   d="m 0,0 c 0,-7.176 -5.817,-12.993 -12.993,-12.993 h -62.802 c -7.177,0 -12.994,5.817 -12.994,12.993 v 89.75 c 0,7.177 5.817,12.994 12.994,12.994 h 62.802 C -5.817,102.744 0,96.927 0,89.75 Z" /></g></g></g></g><g
           transform="translate(1211.3135,197.0059)"
           id="g160"><path
             id="path162"
             style="fill:#7d8a93;fill-opacity:1;fill-rule:nonzero;stroke:none"
             d="m 0,0 c 0,-1.939 -1.573,-3.513 -3.513,-3.513 h -92.376 c -1.939,0 -3.512,1.574 -3.512,3.513 0,1.939 1.573,3.512 3.512,3.512 H -3.513 C -1.573,3.512 0,1.939 0,0" /></g><g
           transform="translate(1206.9033,311.7822)"
           id="g164"><path
             id="path166"
             style="fill:#8ba1af;fill-opacity:1;fill-rule:nonzero;stroke:none"
             d="m 0,0 c 0,-5.263 -4.266,-9.528 -9.528,-9.528 h -71.526 c -5.262,0 -9.528,4.265 -9.528,9.528 0,5.263 4.266,9.528 9.528,9.528 H -9.528 C -4.266,9.528 0,5.263 0,0" /></g><g
           transform="translate(1211.3135,305.7656)"
           id="g168"><path
             id="path170"
             style="fill:#7d8a93;fill-opacity:1;fill-rule:nonzero;stroke:none"
             d="m 0,0 c 0,-1.939 -1.573,-3.512 -3.513,-3.512 h -92.376 c -1.939,0 -3.512,1.573 -3.512,3.512 0,1.94 1.573,3.513 3.512,3.513 H -3.513 C -1.573,3.513 0,1.94 0,0" /></g><g
           transform="translate(1173.3066,328.6738)"
           id="g172"><path
             id="path174"
             style="fill:#8ba1af;fill-opacity:1;fill-rule:nonzero;stroke:none"
             d="m 0,0 c 0,-6.459 -5.235,-11.694 -11.694,-11.694 -6.459,0 -11.695,5.235 -11.695,11.694 0,6.459 5.236,11.694 11.695,11.694 C -5.235,11.694 0,6.459 0,0" /></g><g
           transform="translate(1167.3867,328.6738)"
           id="g176"><path
             id="path178"
             style="fill:#fdda73;fill-opacity:1;fill-rule:nonzero;stroke:none"
             d="m 0,0 c 0,-3.189 -2.585,-5.774 -5.774,-5.774 -3.19,0 -5.775,2.585 -5.775,5.774 0,3.189 2.585,5.774 5.775,5.774 C -2.585,5.774 0,3.189 0,0" /></g><g
           id="g180"><g
             id="g182" /><g
             id="g194"><g
               style="opacity:0.5"
               id="g192"
               clip-path="url(#clipPath186)"><g
                 id="g190"
                 transform="translate(1139.0908,211.2988)"><path
                   id="path188"
                   style="fill:#ffffff;fill-opacity:1;fill-rule:nonzero;stroke:none"
                   d="m 0,0 c 0,-2.871 -2.328,-5.197 -5.197,-5.197 -2.871,0 -5.199,2.326 -5.199,5.197 v 78.827 c 0,2.87 2.328,5.198 5.199,5.198 2.869,0 5.197,-2.328 5.197,-5.198 z" /></g></g></g></g><g
           transform="translate(506.0332,258.2979)"
           id="g196"><path
             id="path198"
             style="fill:#eac365;fill-opacity:1;fill-rule:nonzero;stroke:none"
             d="m 0,0 c 0,-8.351 -81.037,-15.119 -181,-15.119 -99.963,0 -181,6.768 -181,15.119 0,8.351 81.037,15.119 181,15.119 C -81.037,15.119 0,8.351 0,0" /></g><g
           transform="translate(460.4648,314.918)"
           id="g200"><path
             id="path202"
             style="fill:#f0744d;fill-opacity:1;fill-rule:nonzero;stroke:none"
             d="m 0,0 c 0,-8.283 -6.715,-15 -15,-15 h -1 c -8.283,0 -15,6.717 -15,15 v 53.814 c 0,8.284 6.717,15 15,15 h 1 c 8.285,0 15,-6.716 15,-15 z" /></g><g
           transform="translate(440.4629,314.918)"
           id="g204"><path
             id="path206"
             style="fill:#8ba1af;fill-opacity:1;fill-rule:nonzero;stroke:none"
             d="m 0,0 c 0,-8.283 -6.715,-15 -15,-15 h -1 c -8.283,0 -15,6.717 -15,15 v 53.814 c 0,8.284 6.717,15 15,15 h 1 c 8.285,0 15,-6.716 15,-15 z" /></g><g
           transform="translate(226.3745,378.6953)"
           id="g208"><path
             id="path210"
             style="fill:#8ba1af;fill-opacity:1;fill-rule:nonzero;stroke:none"
             d="m 0,0 c 0,-3.662 -2.968,-6.63 -6.63,-6.63 -3.662,0 -6.63,2.968 -6.63,6.63 v 7.965 c 0,3.662 2.968,6.63 6.63,6.63 3.662,0 6.63,-2.968 6.63,-6.63 z" /></g><g
           transform="translate(245.4282,329.8447)"
           id="g212"><path
             id="path214"
             style="fill:#f0744d;fill-opacity:1;fill-rule:nonzero;stroke:none"
             d="m 0,0 c 0,-8.284 -6.716,-15 -15,-15 h -21.367 c -8.284,0 -15,6.716 -15,15 v 38.888 c 0,8.284 6.716,15 15,15 H -15 c 8.284,0 15,-6.716 15,-15 z" /></g><g
           transform="translate(463.0312,340.7998)"
           id="g216"><path
             id="path218"
             style="fill:#888a71;fill-opacity:1;fill-rule:nonzero;stroke:none"
             d="m 0,0 c 0,0 18.955,-81.763 -60.27,-81.763 -79.224,0 6.272,81.763 6.272,81.763 z" /></g><g
           transform="translate(187.0356,340.7998)"
           id="g220"><path
             id="path222"
             style="fill:#888a71;fill-opacity:1;fill-rule:nonzero;stroke:none"
             d="M 0,0 C 0,0 -18.956,-81.763 60.269,-81.763 139.494,-81.763 53.997,0 53.997,0 Z" /></g><g
           transform="translate(418.4082,293.6553)"
           id="g224"><path
             id="path226"
             style="fill:#9aa07f;fill-opacity:1;fill-rule:nonzero;stroke:none"
             d="m 0,0 c 0,-27.877 -22.6,-50.477 -50.477,-50.477 h -85.798 c -27.876,0 -50.475,22.6 -50.475,50.477 v 124.264 c 0,27.877 22.599,50.474 50.475,50.474 h 85.798 C -22.6,174.738 0,152.141 0,124.264 Z" /></g><g
           transform="translate(367.9316,253.1797)"
           id="g228"><path
             id="path230"
             style="fill:#888a71;fill-opacity:1;fill-rule:nonzero;stroke:none"
             d="m 0,0 h -85.798 c -27.876,0 -50.476,22.6 -50.476,50.477 V 40.476 c 0,-27.877 22.6,-50.477 50.476,-50.477 H 0 c 27.877,0 50.477,22.6 50.477,50.477 V 50.477 C 50.477,22.6 27.877,0 0,0" /></g><g
           transform="translate(367.7832,253.7842)"
           id="g232"><path
             id="path234"
             style="fill:#bc9153;fill-opacity:1;fill-rule:nonzero;stroke:none"
             d="m 0,0 c 0,-3.646 0.447,-7.185 1.271,-10.577 27.358,0.599 49.354,22.948 49.354,50.448 v 4.357 C 48.666,44.49 46.67,44.639 44.639,44.639 19.986,44.639 0,24.653 0,0" /></g><g
           transform="translate(282.2827,253.7842)"
           id="g236"><path
             id="path238"
             style="fill:#bc9153;fill-opacity:1;fill-rule:nonzero;stroke:none"
             d="m 0,0 c 0,-3.646 -0.447,-7.185 -1.271,-10.577 -27.357,0.599 -49.354,22.948 -49.354,50.448 v 4.357 c 1.959,0.262 3.955,0.411 5.986,0.411 C -19.985,44.639 0,24.653 0,0" /></g><g
           transform="translate(390.5332,280.6699)"
           id="g240"><path
             id="path242"
             style="fill:#888a71;fill-opacity:1;fill-rule:nonzero;stroke:none"
             d="M 0,0 C 0,-8.434 -15.854,-15.271 -35.408,-15.271 H -95.594 C -115.147,-15.271 -131,-8.434 -131,0 v 37.592 c 0,8.433 15.853,15.268 35.406,15.268 h 60.186 C -15.854,52.86 0,46.025 0,37.592 Z" /></g><g
           transform="translate(353.2871,296.9902)"
           id="g244"><path
             id="path246"
             style="fill:#75755d;fill-opacity:1;fill-rule:nonzero;stroke:none"
             d="m 0,0 h -56.51 c -18.36,0 -33.244,6.42 -33.244,14.338 v -9.39 c 0,-7.919 14.884,-14.338 33.244,-14.338 H 0 c 18.361,0 33.246,6.419 33.246,14.338 v 9.39 C 33.246,6.42 18.361,0 0,0" /></g><g
           transform="translate(231.6577,407.8887)"
           id="g248"><path
             id="path250"
             style="fill:#888a71;fill-opacity:1;fill-rule:nonzero;stroke:none"
             d="m 0,0 c 9.203,-5.748 23.907,-9.471 40.475,-9.471 h 105.801 c 16.568,0 31.271,3.723 40.474,9.471 v 10.03 c 0,27.877 -22.599,50.475 -50.476,50.475 H 50.476 C 22.6,60.505 0,37.907 0,10.03 Z" /></g><g
           transform="translate(428.4102,431.9512)"
           id="g252"><path
             id="path254"
             style="fill:#9aa07f;fill-opacity:1;fill-rule:nonzero;stroke:none"
             d="m 0,0 c 0,-12.996 -22.6,-23.532 -50.477,-23.532 h -105.8 c -27.876,0 -50.476,10.536 -50.476,23.532 l 10.001,57.931 c 0,12.996 22.599,23.531 50.475,23.531 h 85.798 c 27.877,0 50.477,-10.535 50.477,-23.531 z" /></g><g
           transform="translate(417.7246,493.7314)"
           id="g256"><path
             id="path258"
             style="fill:#888a71;fill-opacity:1;fill-rule:nonzero;stroke:none"
             d="m 0,0 c -3.941,11.164 -24.729,19.682 -49.793,19.682 h -85.798 c -25.063,0 -45.85,-8.518 -49.792,-19.682 z" /></g><path
           id="path260"
           style="fill:#888a71;fill-opacity:1;fill-rule:nonzero;stroke:none"
           d="m 305.033,429.232 h -45.5 v 4.174 h 45.5 z" /><g
           transform="translate(294.2832,363.1758)"
           id="g262"><path
             id="path264"
             style="fill:#bc9153;fill-opacity:1;fill-rule:nonzero;stroke:none"
             d="M 0,0 -12,-10.001 -24,0 V 70.23 H 0 Z" /></g><path
           id="path266"
           style="fill:#888a71;fill-opacity:1;fill-rule:nonzero;stroke:none"
           d="m 390.533,429.232 h -45.5 v 4.174 h 45.5 z" /><g
           transform="translate(379.7832,363.1758)"
           id="g268"><path
             id="path270"
             style="fill:#bc9153;fill-opacity:1;fill-rule:nonzero;stroke:none"
             d="M 0,0 -12,-10.001 -24,0 V 70.23 H 0 Z" /></g><g
           transform="translate(331.0937,312.2617)"
           id="g272"><path
             id="path274"
             style="fill:#ffffff;fill-opacity:1;fill-rule:nonzero;stroke:none"
             d="m 0,0 c 0,-3.347 -2.714,-6.061 -6.061,-6.061 -3.346,0 -6.06,2.714 -6.06,6.061 0,3.347 2.714,6.061 6.06,6.061 C -2.714,6.061 0,3.347 0,0" /></g><g
           transform="translate(328.4473,444.6074)"
           id="g276"><path
             id="path278"
             style="fill:#ffffff;fill-opacity:1;fill-rule:nonzero;stroke:none"
             d="m 0,0 c -1.885,-1.885 -4.941,-1.885 -6.826,0 l -16.895,16.895 c -1.884,1.884 -1.884,4.941 0,6.826 l 16.895,16.894 c 1.885,1.885 4.941,1.885 6.826,0 L 16.895,23.721 c 1.884,-1.885 1.884,-4.942 0,-6.826 z" /></g><g
           transform="translate(442.5332,518.7324)"
           id="g280"><path
             id="path282"
             style="fill:#f0744d;fill-opacity:1;fill-rule:nonzero;stroke:none"
             d="m 0,0 c 0,-8.284 -6.715,-15 -15,-15 h -205 c -8.284,0 -15,6.716 -15,15 v 38 c 0,8.284 6.716,15 15,15 H -15 C -6.715,53 0,46.284 0,38 Z" /></g><g
           transform="translate(427.5332,533.7354)"
           id="g284"><path
             id="path286"
             style="fill:#da704e;fill-opacity:1;fill-rule:nonzero;stroke:none"
             d="m 0,0 h -205 c -8.284,0 -15,6.716 -15,15 v -30.003 c 0,-8.284 6.716,-15 15,-15 H 0 c 8.285,0 15,6.716 15,15 V 15 C 15,6.716 8.285,0 0,0" /></g><path
           id="path288"
           style="fill:#bc9153;fill-opacity:1;fill-rule:nonzero;stroke:none"
           d="m 279.437,500.482 h -14.528 v 74.5 h 14.528 z" /><path
           id="path290"
           style="fill:#bc9153;fill-opacity:1;fill-rule:nonzero;stroke:none"
           d="m 385.158,500.482 h -14.527 v 74.5 h 14.527 z" /><g
           transform="translate(240.604,340.4648)"
           id="g292"><path
             id="path294"
             style="fill:#75755d;fill-opacity:1;fill-rule:nonzero;stroke:none"
             d="M 0,0 C 0,-3.83 -3.104,-6.935 -6.934,-6.935 H -55.066 C -58.896,-6.935 -62,-3.83 -62,0 c 0,3.829 3.104,6.934 6.934,6.934 H -6.934 C -3.104,6.934 0,3.829 0,0" /></g><g
           transform="translate(409.4629,340.4648)"
           id="g296"><path
             id="path298"
             style="fill:#75755d;fill-opacity:1;fill-rule:nonzero;stroke:none"
             d="M 0,0 C 0,-3.83 3.104,-6.935 6.934,-6.935 H 55.066 C 58.895,-6.935 62,-3.83 62,0 62,3.829 58.895,6.934 55.066,6.934 H 6.934 C 3.104,6.934 0,3.829 0,0" /></g><g
           transform="translate(963.2266,711.5488)"
           id="g300"><path
             id="path302"
             style="fill:#75755d;fill-opacity:1;fill-rule:nonzero;stroke:none"
             d="M 0,0 -205.662,-309.468 H 137.136 Z" /></g><g
           transform="translate(963.2266,711.5488)"
           id="g304"><path
             id="path306"
             style="fill:#888a71;fill-opacity:1;fill-rule:nonzero;stroke:none"
             d="M 0,0 244.817,-115.338 396.77,-309.468 H 228.756 Z" /></g><g
           transform="translate(963.2266,711.5488)"
           id="g308"><path
             id="path310"
             style="fill:#9aa07f;fill-opacity:1;fill-rule:nonzero;stroke:none"
             d="M 0,0 -46.136,-309.468 H -228.757 Z" /></g><g
           transform="translate(963.2266,711.5488)"
           id="g312"><path
             id="path314"
             style="fill:#9aa07f;fill-opacity:1;fill-rule:nonzero;stroke:none"
             d="m 0,0 46.136,-309.468 h 182.62 z" /></g><g
           transform="translate(1048.1592,158.2178)"
           id="g316"><path
             id="path318"
             style="fill:#eac365;fill-opacity:1;fill-rule:nonzero;stroke:none"
             d="m 0,0 c 0,-4.176 -34.75,-7.56 -77.616,-7.56 -42.865,0 -77.615,3.384 -77.615,7.56 0,4.176 34.75,7.56 77.615,7.56 C -34.75,7.56 0,4.176 0,0" /></g><g
           transform="translate(913.5459,182.543)"
           id="g320"><path
             id="path322"
             style="fill:#7d8a93;fill-opacity:1;fill-rule:nonzero;stroke:none"
             d="m 0,0 c -13.519,0 -24.478,10.96 -24.478,24.478 0,13.519 10.959,24.478 24.478,24.478 13.52,0 24.479,-10.959 24.479,-24.478 C 24.479,10.96 13.52,0 0,0 m 0,59.727 c -19.467,0 -35.248,-15.782 -35.248,-35.249 0,-19.467 15.781,-35.249 35.248,-35.249 19.468,0 35.249,15.782 35.249,35.249 0,19.467 -15.781,35.249 -35.249,35.249" /></g><g
           transform="translate(920.2959,256.9424)"
           id="g324"><path
             id="path326"
             style="fill:#8ba1af;fill-opacity:1;fill-rule:nonzero;stroke:none"
             d="m 0,0 v -91.284 c 0,-8.284 6.716,-15 15,-15 h 70.495 c 8.284,0 15,6.716 15,15 V 0 Z" /></g><g
           transform="translate(1028.54,256.9424)"
           id="g328"><path
             id="path330"
             style="fill:#7d8a93;fill-opacity:1;fill-rule:nonzero;stroke:none"
             d="m 0,0 c 0,-3.962 -3.213,-7.174 -7.174,-7.174 h -101.644 c -3.963,0 -7.174,3.212 -7.174,7.174 0,3.962 3.211,7.174 7.174,7.174 H -7.174 C -3.213,7.174 0,3.962 0,0" /></g><g
           id="g332"><g
             id="g334" /><g
             id="g350"><g
               style="opacity:0.39999402"
               id="g348"
               clip-path="url(#clipPath338)"><g
                 id="g342"
                 transform="translate(940.3662,424.543)"><path
                   id="path340"
                   style="fill:#eff0e6;fill-opacity:1;fill-rule:nonzero;stroke:none"
                   d="m 0,0 c 0,0 -43.947,-28.207 -17.548,-66.666 14.018,-20.421 35.041,-30.989 32,-71.334 0,0 15.013,32.412 -17.142,74.667 C -25.013,-33.999 0,0 0,0" /></g><g
                 id="g346"
                 transform="translate(974.5088,424.543)"><path
                   id="path344"
                   style="fill:#eff0e6;fill-opacity:1;fill-rule:nonzero;stroke:none"
                   d="m 0,0 c 0,0 -43.947,-28.207 -17.548,-66.666 14.018,-20.421 35.041,-30.989 32,-71.334 0,0 15.013,32.412 -17.142,74.667 C -25.013,-33.999 0,0 0,0" /></g></g></g></g><g
           transform="translate(808.2959,91.3291)"
           id="g352"><path
             id="path354"
             style="fill:#eac365;fill-opacity:1;fill-rule:nonzero;stroke:none"
             d="m 0,0 c 0,-8.862 -85.205,-16.047 -190.31,-16.047 -105.105,0 -190.309,7.185 -190.309,16.047 0,8.863 85.204,16.048 190.309,16.048 C -85.205,16.048 0,8.863 0,0" /></g><g
           transform="translate(718.5977,369.873)"
           id="g356"><path
             id="path358"
             style="fill:#bc9153;fill-opacity:1;fill-rule:nonzero;stroke:none"
             d="m 0,0 c 3.205,-4.145 2.439,-10.102 -1.705,-13.306 l -165.338,-127.768 c -4.145,-3.202 -10.102,-2.44 -13.306,1.706 l -1.673,2.166 c -3.204,4.145 -2.441,10.103 1.705,13.306 L -14.98,3.872 c 4.146,3.204 10.103,2.44 13.306,-1.706 z" /></g><g
           transform="translate(611.8574,254.3301)"
           id="g360"><path
             id="path362"
             style="fill:#f0744d;fill-opacity:1;fill-rule:nonzero;stroke:none"
             d="M 0,0 -29.023,37.557 -50.287,21.125 -71.551,4.693 -42.527,-32.864 c 0,0 8.93,-10.007 7.285,-28.041 0,0 16.426,-5.23 38.941,12.17 22.516,17.399 21.598,34.613 21.598,34.613 C 7.43,-11.166 0,0 0,0" /></g><g
           id="g364"><g
             id="g366" /><g
             id="g386"><g
               style="opacity:0.5"
               id="g384"
               clip-path="url(#clipPath370)"><g
                 id="g374"
                 transform="translate(561.5957,231.4746)"><path
                   id="path372"
                   style="fill:#ffffff;fill-opacity:1;fill-rule:nonzero;stroke:none"
                   d="M 0,0 0.9,-1.166 C 0.353,-0.398 0,0 0,0" /></g><g
                 id="g378"
                 transform="translate(605.0239,263.1729)"><path
                   id="path376"
                   style="fill:#ffffff;fill-opacity:1;fill-rule:nonzero;stroke:none"
                   d="M 0,0 -0.9,1.165 C -0.9,1.165 -0.605,0.724 0,0" /></g><g
                 id="g382"
                 transform="translate(607.8223,215.6035)"><path
                   id="path380"
                   style="fill:#ffffff;fill-opacity:1;fill-rule:nonzero;stroke:none"
                   d="m 0,0 c -14.331,-11.074 -23.207,-10.678 -31.413,-11.738 0.424,-3.104 0.558,-6.587 0.206,-10.441 0,0 16.426,-5.229 38.941,12.17 22.516,17.4 21.599,34.613 21.599,34.613 -3.818,0.631 -7.155,1.639 -10.051,2.833 C 16.185,19.764 14.33,11.073 0,0" /></g></g></g></g><g
           transform="translate(733.4805,211.4639)"
           id="g388"><path
             id="path390"
             style="fill:#bc9153;fill-opacity:1;fill-rule:nonzero;stroke:none"
             d="M 0,0 H -230.988 V -130.182 H 0 c 10.605,0 19.201,29.142 19.201,65.091 C 19.201,-29.142 10.605,0 0,0" /></g><g
           transform="translate(521.6938,146.373)"
           id="g392"><path
             id="path394"
             style="fill:#eac365;fill-opacity:1;fill-rule:nonzero;stroke:none"
             d="m 0,0 c 0,-35.949 -8.597,-65.091 -19.202,-65.091 -10.605,0 -19.201,29.142 -19.201,65.091 0,35.949 8.596,65.091 19.201,65.091 C -8.597,65.091 0,35.949 0,0" /></g><g
           transform="translate(723.2646,177.167)"
           id="g396"><path
             id="path398"
             style="fill:#a57c47;fill-opacity:1;fill-rule:nonzero;stroke:none"
             d="m 0,0 c 0,-2.087 -1.693,-3.779 -3.78,-3.779 h -97.719 c -2.087,0 -3.78,1.692 -3.78,3.779 0,2.088 1.693,3.78 3.78,3.78 H -3.78 C -1.693,3.78 0,2.088 0,0" /></g><g
           transform="translate(689.7998,150.1523)"
           id="g400"><path
             id="path402"
             style="fill:#a57c47;fill-opacity:1;fill-rule:nonzero;stroke:none"
             d="m 0,0 c 0,-2.087 -1.693,-3.779 -3.78,-3.779 h -97.719 c -2.087,0 -3.78,1.692 -3.78,3.779 0,2.088 1.693,3.78 3.78,3.78 H -3.78 C -1.693,3.78 0,2.088 0,0" /></g><g
           transform="translate(718.3379,107.376)"
           id="g404"><path
             id="path406"
             style="fill:#a57c47;fill-opacity:1;fill-rule:nonzero;stroke:none"
             d="m 0,0 c 0,-2.087 -1.693,-3.779 -3.78,-3.779 h -97.719 c -2.087,0 -3.78,1.692 -3.78,3.779 0,2.088 1.693,3.78 3.78,3.78 H -3.78 C -1.693,3.78 0,2.088 0,0" /></g><g
           transform="translate(850.2979,279.7715)"
           id="g408"><path
             id="path410"
             style="fill:#eac365;fill-opacity:1;fill-rule:nonzero;stroke:none"
             d="m 0,0 c 0,-3.74 -14.435,-6.771 -32.239,-6.771 -17.807,0 -32.24,3.031 -32.24,6.771 0,3.74 14.433,6.771 32.24,6.771 C -14.435,6.771 0,3.74 0,0" /></g><g
           id="g412"><g
             id="g414" /><g
             id="g426"><g
               style="opacity:0.5"
               id="g424"
               clip-path="url(#clipPath418)"><g
                 id="g422"
                 transform="translate(834.8281,333.2285)"><path
                   id="path420"
                   style="fill:#ffffff;fill-opacity:1;fill-rule:nonzero;stroke:none"
                   d="m 0,0 -1.436,0.981 10.918,19.88 3.256,-2.224 z" /></g></g></g></g><g
           transform="translate(841.0127,345.1191)"
           id="g428"><path
             id="path430"
             style="fill:#9aa07f;fill-opacity:1;fill-rule:nonzero;stroke:none"
             d="M 0,0 C 0,0 -25.594,0.168 -20.702,21.842 -20.702,21.842 4.118,18.253 0,0" /></g><g
           transform="translate(847.1338,290.3613)"
           id="g432"><path
             id="path434"
             style="fill:#f0744d;fill-opacity:1;fill-rule:nonzero;stroke:none"
             d="m 0,0 c -10.978,-16.059 -32.893,-20.178 -48.95,-9.201 -16.058,10.975 -20.177,32.89 -9.2,48.949 10.975,16.057 32.891,20.177 48.948,9.201 C 6.856,37.973 10.976,16.057 0,0" /></g></g></g></g></svg>